PathFileType	4	(X/Y/Z)	C:\Users\dbl\Desktop\LZH\BX\Trimmed_Trimmed_bx_y_10_901.trc
DataRate	CameraRate	NumFrames	NumMarkers	Units	OrigDataRate	OrigDataStartFrame	OrigNumFrames
50.00	50.00	       4	43	mm	50.00	62	       247
Frame#	Time	Top.Head			R.Acromium			L.Acromium			Sternum			R.ASIS			L.ASIS			V.Sacral			R.Thigh.Upper			R.Thigh.Front			R.Thigh.Rear			R.Knee.Lat			R.Knee.Med			R.Shank.Upper			R.Shank.Front			R.Shank.Rear			R.Ankle.Lat			R.Midfoot.Lat			R.Toe.Lat			R.Toe.Tip			R.Toe.Med			R.Ankle.Med			R.Midfoot.Sup			R.Heel			L.Thigh.Upper			L.Thigh.Front			L.Thigh.Rear			L.Knee.Lat			L.Knee.Med			L.Shank.Upper			L.Shank.Front			L.Shank.Rear			L.Ankle.Lat			L.Midfoot.Lat			L.Toe.Lat			L.Toe.Tip			L.Toe.Med			L.Ankle.Med			L.Midfoot.Sup			L.Heel			origin1 front left			origin2 front right			origin 3 back right			origin 4 back leftt			
		X1	Y1	Z1	X2	Y2	Z2	X3	Y3	Z3	X4	Y4	Z4	X5	Y5	Z5	X6	Y6	Z6	X7	Y7	Z7	X8	Y8	Z8	X9	Y9	Z9	X10	Y10	Z10	X11	Y11	Z11	X12	Y12	Z12	X13	Y13	Z13	X14	Y14	Z14	X15	Y15	Z15	X16	Y16	Z16	X17	Y17	Z17	X18	Y18	Z18	X19	Y19	Z19	X20	Y20	Z20	X21	Y21	Z21	X22	Y22	Z22	X23	Y23	Z23	X24	Y24	Z24	X25	Y25	Z25	X26	Y26	Z26	X27	Y27	Z27	X28	Y28	Z28	X29	Y29	Z29	X30	Y30	Z30	X31	Y31	Z31	X32	Y32	Z32	X33	Y33	Z33	X34	Y34	Z34	X35	Y35	Z35	X36	Y36	Z36	X37	Y37	Z37	X38	Y38	Z38	X39	Y39	Z39	X40	Y40	Z40	X41	Y41	Z41	X42	Y42	Z42	X43	Y43	Z43	

62	1.220	-646.87909	250.36722	1842.86780	-636.69360	56.73848	1529.06799	-653.10254	446.27023	1519.30872	-532.92267	263.27246	1402.86694	-534.48157	146.03043	1049.85388	-531.79449	388.21686	1058.52429	-726.85046	247.44778	1053.91541	-568.08496	95.02457	888.80652	-521.53540	155.78725	841.65668	-616.81519	89.72467	747.43726	-641.98743	124.86916	605.85205	-631.72034	233.99542	561.86902	-681.27954	123.69854	540.18427	-598.22742	175.30951	544.16376	-720.55347	126.74400	473.77802	-685.84283	146.70001	214.80122	-616.28900	78.50766	168.91403	-572.51898	50.17063	162.38600	-492.87772	89.94315	161.68958	-531.12573	143.69319	164.43179	-630.72314	220.28899	218.69431	-590.64044	190.80029	168.07269	-715.68744	215.76045	169.33441	-566.31018	435.18561	883.36182	-517.95697	374.11108	840.94037	-609.97614	436.04730	752.31934	-644.91925	412.41632	626.82544	-613.54517	308.70367	577.48920	-655.49219	408.53259	562.73608	-603.60730	367.25690	539.32947	-708.19147	414.07965	511.53677	-679.27606	413.06583	212.94662	-585.59741	467.54175	166.15221	-546.76355	479.34061	159.64633	-487.96011	429.81876	168.14294	-525.19098	387.48560	178.44482	-642.42950	325.41818	206.39647	-593.43677	346.41443	168.43431	-731.72253	342.31039	164.45377	-443.41824	449.06552	147.03923	-450.37961	75.20489	144.85890	-806.29578	82.70978	142.52902	-799.13257	457.44647	145.19560	
63	1.240	-644.65106	250.23605	1842.92114	-635.38098	56.69458	1529.03296	-651.93085	446.26553	1519.43726	-531.94794	263.26563	1402.67383	-534.22125	146.21907	1049.78027	-531.65796	388.34244	1058.49963	-726.63739	247.53671	1054.08801	-568.11328	95.10567	888.72351	-521.59686	155.86520	841.57855	-616.86108	89.85326	747.36890	-642.21552	124.89266	605.96179	-631.77588	233.97301	561.82385	-681.48914	123.79778	540.17303	-598.40704	175.35025	544.17285	-720.68109	126.79824	473.76352	-685.85706	146.71890	214.75545	-616.30505	78.49463	168.88135	-572.52527	50.18004	162.38730	-492.86102	89.93221	161.73460	-531.12256	143.68571	164.41782	-630.68140	220.28912	218.73334	-590.62482	190.78680	168.09831	-715.66742	215.75952	169.33792	-566.21112	435.33765	883.29205	-518.11755	374.05630	840.59906	-610.07684	436.26797	752.31042	-645.07208	412.50806	626.78760	-613.66998	308.81488	577.47253	-655.54926	408.60464	562.71759	-603.68396	367.29691	539.34082	-708.26025	414.16711	511.50574	-679.27582	413.02432	212.90170	-585.59546	467.54193	166.16422	-546.76874	479.36331	159.64830	-487.96698	429.80862	168.10895	-525.10077	387.54050	178.27805	-642.43225	325.45734	206.41864	-593.43433	346.46045	168.47124	-731.73022	342.31915	164.42207	-443.42435	449.08762	147.02809	-450.40115	75.22086	144.83426	-806.30182	82.73119	142.51053	-799.12762	457.49591	145.20865	
64	1.260	-642.31683	250.11169	1842.96851	-634.02332	56.65606	1528.99304	-650.69580	446.26971	1519.57617	-530.93164	263.14865	1402.46960	-533.98004	146.38258	1049.68628	-531.48621	388.42569	1058.44470	-726.47894	247.65016	1054.30945	-568.13727	95.19392	888.65350	-521.65735	155.93692	841.48627	-616.83990	90.13223	747.17511	-642.43152	124.89899	606.10406	-631.88800	233.96046	561.75171	-681.67871	123.85781	540.22388	-598.61145	175.41406	544.14606	-720.88281	126.85069	473.73868	-685.86121	146.72783	214.73044	-616.32123	78.47141	168.85242	-572.53162	50.20415	162.38368	-492.84070	89.94913	161.73407	-531.10980	143.67599	164.39659	-630.65680	220.29420	218.79080	-590.63495	190.79369	168.12224	-715.66107	215.74071	169.34659	-566.06049	435.49048	883.22192	-519.24506	373.11487	838.98621	-610.16052	436.46545	752.22729	-645.21881	412.58099	626.77838	-613.77014	308.89233	577.43732	-655.60815	408.72427	562.76184	-603.79218	367.36981	539.34143	-708.34851	414.23260	511.47614	-679.25385	413.00037	212.87515	-585.60681	467.54453	166.15796	-546.76770	479.38046	159.63705	-487.97324	429.81799	168.08925	-524.98132	387.62219	178.03969	-642.46002	325.48447	206.40225	-593.41901	346.48773	168.50432	-731.74646	342.29587	164.40436	-443.43066	449.10312	147.01985	-450.42917	75.24006	144.80179	-806.30426	82.73383	142.51228	-799.12323	457.54306	145.20369	
65	1.280	-639.91949	249.96307	1843.03931	-632.62524	56.65148	1528.93835	-649.39032	446.25302	1519.74048	-529.86499	262.97031	1402.23303	-533.77667	146.52081	1049.55042	-531.24377	388.46118	1058.34790	-726.31299	247.79114	1054.54834	-568.13409	95.33508	888.57874	-521.70776	155.99164	841.38989	-616.74988	90.63332	746.81555	-642.64832	124.89776	606.24237	-632.06000	233.99577	561.67188	-681.83478	123.88669	540.31567	-598.80817	175.50211	544.08972	-721.11523	126.87621	473.68799	-685.86774	146.71907	214.74338	-616.33002	78.45425	168.83839	-572.52954	50.22763	162.36584	-492.82693	89.97511	161.69286	-531.08234	143.66666	164.38203	-630.64526	220.30748	218.86284	-590.67267	190.80943	168.13882	-715.65576	215.71921	169.35471	-565.89844	435.61566	883.14813	-521.65802	371.00650	835.63672	-610.22070	436.65619	752.12537	-645.36902	412.66803	626.83478	-613.84076	308.95822	577.38110	-655.68262	408.87015	562.85907	-603.91980	367.47214	539.34222	-708.45667	414.27283	511.46936	-679.24805	413.00098	212.87727	-585.62653	467.56046	166.13081	-546.74908	479.39447	159.61957	-487.97485	429.83185	168.07327	-524.86981	387.69580	177.83058	-642.46808	325.47070	206.40376	-593.39575	346.47748	168.54062	-731.76453	342.25690	164.41072	-443.43045	449.10062	147.02568	-450.45245	75.25073	144.77533	-806.30457	82.72320	142.52248	-799.11945	457.56158	145.19011	
